<mxfile host="65bd71144e">
    <diagram name="Page-1" id="88ncdXH6dDsggpI7Iywj">
        <mxGraphModel dx="1507" dy="697" grid="1" gridSize="10" guides="1" tooltips="1" connect="1" arrows="1" fold="1" page="1" pageScale="1" pageWidth="827" pageHeight="1169" math="0" shadow="0">
            <root>
                <mxCell id="0"/>
                <mxCell id="1" parent="0"/>
                <mxCell id="8Fci-fuMzbFjDI1SHK1H-1" value="&lt;font style=&quot;font-size: 17px;&quot; color=&quot;#ffffff&quot;&gt;Silicate&lt;/font&gt;" style="rounded=1;whiteSpace=wrap;html=1;fillColor=#6a00ff;strokeColor=#3700CC;fontColor=#ffffff;" parent="1" vertex="1">
                    <mxGeometry x="354" y="180" width="120" height="60" as="geometry"/>
                </mxCell>
                <mxCell id="8Fci-fuMzbFjDI1SHK1H-2" value="&lt;font color=&quot;#c96d6d&quot;&gt;Développeur d'applications&lt;/font&gt;&lt;br&gt;Leny Bressoud" style="rounded=1;whiteSpace=wrap;html=1;strokeColor=#940000;strokeWidth=2;" parent="1" vertex="1">
                    <mxGeometry x="90" y="320" width="170" height="80" as="geometry"/>
                </mxCell>
                <mxCell id="8Fci-fuMzbFjDI1SHK1H-3" value="&lt;font color=&quot;#c96d6d&quot;&gt;Développeur d'applications&lt;/font&gt;&lt;br&gt;Sajidur Rahman" style="rounded=1;whiteSpace=wrap;html=1;strokeColor=#940000;strokeWidth=2;" parent="1" vertex="1">
                    <mxGeometry x="329" y="320" width="170" height="80" as="geometry"/>
                </mxCell>
                <mxCell id="8Fci-fuMzbFjDI1SHK1H-8" value="" style="endArrow=none;html=1;rounded=0;exitX=0.5;exitY=1;exitDx=0;exitDy=0;entryX=0.5;entryY=0;entryDx=0;entryDy=0;strokeWidth=2;" parent="1" source="8Fci-fuMzbFjDI1SHK1H-1" target="8Fci-fuMzbFjDI1SHK1H-3" edge="1">
                    <mxGeometry width="50" height="50" relative="1" as="geometry">
                        <mxPoint x="490" y="560" as="sourcePoint"/>
                        <mxPoint x="540" y="510" as="targetPoint"/>
                        <Array as="points">
                            <mxPoint x="414" y="280"/>
                        </Array>
                    </mxGeometry>
                </mxCell>
                <mxCell id="8Fci-fuMzbFjDI1SHK1H-9" value="" style="endArrow=none;html=1;rounded=0;exitX=0.5;exitY=1;exitDx=0;exitDy=0;entryX=0.5;entryY=0;entryDx=0;entryDy=0;strokeWidth=2;" parent="1" source="8Fci-fuMzbFjDI1SHK1H-1" target="8Fci-fuMzbFjDI1SHK1H-2" edge="1">
                    <mxGeometry width="50" height="50" relative="1" as="geometry">
                        <mxPoint x="424" y="250" as="sourcePoint"/>
                        <mxPoint x="569" y="330" as="targetPoint"/>
                        <Array as="points">
                            <mxPoint x="414" y="280"/>
                            <mxPoint x="175" y="280"/>
                        </Array>
                    </mxGeometry>
                </mxCell>
                <mxCell id="2" value="&lt;span style=&quot;color: rgb(201, 109, 109);&quot;&gt;Développeur d'applications&lt;br&gt;&lt;/span&gt;Gabriel Vannay" style="rounded=1;whiteSpace=wrap;html=1;strokeColor=#940000;strokeWidth=2;" vertex="1" parent="1">
                    <mxGeometry x="570" y="320" width="170" height="80" as="geometry"/>
                </mxCell>
                <mxCell id="3" value="" style="endArrow=none;html=1;rounded=0;exitX=0.5;exitY=1;exitDx=0;exitDy=0;entryX=0.5;entryY=0;entryDx=0;entryDy=0;strokeWidth=2;" edge="1" parent="1" source="8Fci-fuMzbFjDI1SHK1H-1" target="2">
                    <mxGeometry width="50" height="50" relative="1" as="geometry">
                        <mxPoint x="424" y="250" as="sourcePoint"/>
                        <mxPoint x="185" y="330" as="targetPoint"/>
                        <Array as="points">
                            <mxPoint x="414" y="280"/>
                            <mxPoint x="655" y="280"/>
                        </Array>
                    </mxGeometry>
                </mxCell>
            </root>
        </mxGraphModel>
    </diagram>
</mxfile>